<svg width="28" xmlns="http://www.w3.org/2000/svg" height="28" id="screenshot-6640208a-bb97-8011-8007-8177796751e3" viewBox="0 0 28 28" xmlns:xlink="http://www.w3.org/1999/xlink" fill="none" version="1.1"><g id="shape-6640208a-bb97-8011-8007-8177796751e3"><defs><clipPath id="frame-clip-6640208a-bb97-8011-8007-8177796751e3-render-1" class="frame-clip frame-clip-def"><rect rx="7" ry="7" x="0" y="0" width="28" height="28" transform="matrix(1.000000, 0.000000, 0.000000, 1.000000, 0.000000, 0.000000)"/></clipPath></defs><g class="frame-container-wrapper"><g class="frame-container-blur"><g class="frame-container-shadows"><g clip-path="url(#frame-clip-6640208a-bb97-8011-8007-8177796751e3-render-1)" fill="none"><g class="fills" id="fills-6640208a-bb97-8011-8007-8177796751e3"><rect width="28" height="28" class="frame-background" x="0" transform="matrix(1.000000, 0.000000, 0.000000, 1.000000, 0.000000, 0.000000)" style="fill: rgb(255, 255, 255); fill-opacity: 1;" ry="7" rx="7" y="0"/></g><g class="frame-children"><g id="shape-6640208a-bb97-8011-8007-8177796751e4"><g class="frame-container-wrapper"><g class="frame-container-blur"><g class="frame-container-shadows"><g fill="none"><g class="fills" id="fills-6640208a-bb97-8011-8007-8177796751e4"><rect rx="0" ry="0" x="4" y="4" width="20" height="20" transform="matrix(1.000000, 0.000000, 0.000000, 1.000000, 0.000000, 0.000000)" class="frame-background"/></g><g class="frame-children"><g id="shape-6640208a-bb97-8011-8007-8177796751e5"><g class="fills" id="fills-6640208a-bb97-8011-8007-8177796751e5"><path d="M4,7L6,4L6,22L24,22L21,24L4,24L4,7M24,22M24,4" style="fill: rgb(142, 81, 255); fill-opacity: 1;"/></g></g><g id="shape-6640208a-bb97-8011-8007-8177796751e6"><g class="fills" id="fills-6640208a-bb97-8011-8007-8177796751e6"><path d="M21,4L19,4L16,18L17,18L21,4" style="fill: rgb(142, 81, 255); fill-opacity: 1;"/></g></g><g id="shape-6640208a-bb97-8011-8007-8177796751e7"><g class="fills" id="fills-6640208a-bb97-8011-8007-8177796751e7"><path d="M6,4L9,4L13,18L17,18L21,4L24,4L24,22L6,22L6,4" style="fill: rgb(221, 214, 255); fill-opacity: 1;"/></g><g id="strokes-67871f9b-2ea7-80f2-8007-8177bb597a92-6640208a-bb97-8011-8007-8177796751e7" class="strokes"><g class="inner-stroke-shape"><defs><clipPath id="inner-stroke-render-5-6640208a-bb97-8011-8007-8177796751e7-0"><use href="#stroke-shape-render-5-6640208a-bb97-8011-8007-8177796751e7-0"/></clipPath><path d="M6,4L9,4L13,18L17,18L21,4L24,4L24,22L6,22L6,4" id="stroke-shape-render-5-6640208a-bb97-8011-8007-8177796751e7-0" style="fill: none; stroke-width: 0.5; stroke: rgb(112, 8, 231); stroke-opacity: 1;"/></defs><use href="#stroke-shape-render-5-6640208a-bb97-8011-8007-8177796751e7-0" clip-path="url('#inner-stroke-render-5-6640208a-bb97-8011-8007-8177796751e7-0')"/></g></g></g></g></g></g></g></g></g></g></g></g></g></g></g></svg>