<svg width="32" xmlns="http://www.w3.org/2000/svg" height="32" id="screenshot-6640208a-bb97-8011-8007-817858947540" viewBox="0 0 32 32" xmlns:xlink="http://www.w3.org/1999/xlink" fill="none" version="1.1"><g id="shape-6640208a-bb97-8011-8007-817858947540"><defs><clipPath id="frame-clip-6640208a-bb97-8011-8007-817858947540-render-1" class="frame-clip frame-clip-def"><rect rx="16" ry="16" x="0" y="0" width="32" height="32" transform="matrix(1.000000, 0.000000, 0.000000, 1.000000, 0.000000, 0.000000)"/></clipPath></defs><g class="frame-container-wrapper"><g class="frame-container-blur"><g class="frame-container-shadows"><g clip-path="url(#frame-clip-6640208a-bb97-8011-8007-817858947540-render-1)" fill="none"><g class="fills" id="fills-6640208a-bb97-8011-8007-817858947540"><rect width="32" height="32" class="frame-background" x="0" transform="matrix(1.000000, 0.000000, 0.000000, 1.000000, 0.000000, 0.000000)" style="fill: rgb(255, 255, 255); fill-opacity: 1;" ry="16" rx="16" y="0"/></g><g class="frame-children"><g id="shape-6640208a-bb97-8011-8007-817858947541"><g class="frame-container-wrapper"><g class="frame-container-blur"><g class="frame-container-shadows"><g fill="none"><g class="fills" id="fills-6640208a-bb97-8011-8007-817858947541"><rect rx="0" ry="0" x="6" y="6" width="20" height="20" transform="matrix(1.000000, 0.000000, 0.000000, 1.000000, 0.000000, 0.000000)" class="frame-background"/></g><g class="frame-children"><g id="shape-6640208a-bb97-8011-8007-817858947542"><g class="fills" id="fills-6640208a-bb97-8011-8007-817858947542"><path d="M6,9L8,6L8,24L26,24L23,26L6,26L6,9M26,24M26,6" style="fill: rgb(142, 81, 255); fill-opacity: 1;"/></g></g><g id="shape-6640208a-bb97-8011-8007-817858947543"><g class="fills" id="fills-6640208a-bb97-8011-8007-817858947543"><path d="M23,6L21,6L18,20L19,20L23,6" style="fill: rgb(142, 81, 255); fill-opacity: 1;"/></g></g><g id="shape-6640208a-bb97-8011-8007-817858947544"><g class="fills" id="fills-6640208a-bb97-8011-8007-817858947544"><path d="M8,6L11,6L15,20L19,20L23,6L26,6L26,24L8,24L8,6" style="fill: rgb(221, 214, 255); fill-opacity: 1;"/></g><g id="strokes-74647a75-f4b0-80e5-8007-817877c711ee-6640208a-bb97-8011-8007-817858947544" class="strokes"><g class="inner-stroke-shape"><defs><clipPath id="inner-stroke-render-5-6640208a-bb97-8011-8007-817858947544-0"><use href="#stroke-shape-render-5-6640208a-bb97-8011-8007-817858947544-0"/></clipPath><path d="M8,6L11,6L15,20L19,20L23,6L26,6L26,24L8,24L8,6" id="stroke-shape-render-5-6640208a-bb97-8011-8007-817858947544-0" style="fill: none; stroke-width: 0.5; stroke: rgb(112, 8, 231); stroke-opacity: 1;"/></defs><use href="#stroke-shape-render-5-6640208a-bb97-8011-8007-817858947544-0" clip-path="url('#inner-stroke-render-5-6640208a-bb97-8011-8007-817858947544-0')"/></g></g></g></g></g></g></g></g></g></g></g></g></g></g></g></svg>