<svg width="24" xmlns="http://www.w3.org/2000/svg" height="24" id="screenshot-d3c1a8ba-d273-8038-8007-816e9af8b78e" viewBox="0 0 24 24" xmlns:xlink="http://www.w3.org/1999/xlink" fill="none" version="1.1"><g id="shape-d3c1a8ba-d273-8038-8007-816e9af8b78e"><defs><clipPath id="frame-clip-d3c1a8ba-d273-8038-8007-816e9af8b78e-render-1" class="frame-clip frame-clip-def"><rect rx="0" ry="0" x="0" y="0" width="24" height="24" transform="matrix(1.000000, 0.000000, 0.000000, 1.000000, 0.000000, 0.000000)"/></clipPath></defs><g class="frame-container-wrapper"><g class="frame-container-blur"><g class="frame-container-shadows"><g clip-path="url(#frame-clip-d3c1a8ba-d273-8038-8007-816e9af8b78e-render-1)" fill="none"><g class="fills" id="fills-d3c1a8ba-d273-8038-8007-816e9af8b78e"><rect rx="0" ry="0" x="0" y="0" width="24" height="24" transform="matrix(1.000000, 0.000000, 0.000000, 1.000000, 0.000000, 0.000000)" class="frame-background"/></g><g class="frame-children"><g id="shape-d3c1a8ba-d273-8038-8007-816e9af8b78f"><g class="frame-container-wrapper"><g class="frame-container-blur"><g class="frame-container-shadows"><g fill="none"><g class="fills" id="fills-d3c1a8ba-d273-8038-8007-816e9af8b78f"><rect rx="0" ry="0" x="2" y="2" width="20" height="20" transform="matrix(1.000000, 0.000000, 0.000000, 1.000000, 0.000000, 0.000000)" class="frame-background"/></g><g class="frame-children"><g id="shape-d3c1a8ba-d273-8038-8007-816e9af8b790"><g class="fills" id="fills-d3c1a8ba-d273-8038-8007-816e9af8b790"><path d="M2,5L4,2L4,20L22,20L19,22L2,22L2,5M22,20M22,2" style="fill: rgb(142, 81, 255); fill-opacity: 1;"/></g></g><g id="shape-d3c1a8ba-d273-8038-8007-816e9af8b791"><g class="fills" id="fills-d3c1a8ba-d273-8038-8007-816e9af8b791"><path d="M19,2L17,2L14,16L15,16L19,2" style="fill: rgb(142, 81, 255); fill-opacity: 1;"/></g></g><g id="shape-d3c1a8ba-d273-8038-8007-817354be24a7"><g class="fills" id="fills-d3c1a8ba-d273-8038-8007-817354be24a7"><path d="M4,2L7,2L11,16L15,16L19,2L22,2L22,20L4,20L4,2" style="fill: rgb(221, 214, 255); fill-opacity: 1;"/></g><g id="strokes-329086c3-cbee-8082-8007-8174dce5fb86-d3c1a8ba-d273-8038-8007-817354be24a7" class="strokes"><g class="inner-stroke-shape"><defs><clipPath id="inner-stroke-render-5-d3c1a8ba-d273-8038-8007-817354be24a7-0"><use href="#stroke-shape-render-5-d3c1a8ba-d273-8038-8007-817354be24a7-0"/></clipPath><path d="M4,2L7,2L11,16L15,16L19,2L22,2L22,20L4,20L4,2" id="stroke-shape-render-5-d3c1a8ba-d273-8038-8007-817354be24a7-0" style="fill: none; stroke-width: 0.5; stroke: rgb(112, 8, 231); stroke-opacity: 1;"/></defs><use href="#stroke-shape-render-5-d3c1a8ba-d273-8038-8007-817354be24a7-0" clip-path="url('#inner-stroke-render-5-d3c1a8ba-d273-8038-8007-817354be24a7-0')"/></g></g></g></g></g></g></g></g></g></g></g></g></g></g></g></svg>