<svg width="24" xmlns="http://www.w3.org/2000/svg" height="24" id="screenshot-97a2594c-0bdc-80e2-8007-8174903ea760" viewBox="0 0 24 24" xmlns:xlink="http://www.w3.org/1999/xlink" fill="none" version="1.1"><g id="shape-97a2594c-0bdc-80e2-8007-8174903ea760"><defs><clipPath id="frame-clip-97a2594c-0bdc-80e2-8007-8174903ea760-render-1" class="frame-clip frame-clip-def"><rect rx="0" ry="0" x="0" y="0" width="24" height="24" transform="matrix(1.000000, 0.000000, 0.000000, 1.000000, 0.000000, 0.000000)"/></clipPath></defs><g class="frame-container-wrapper"><g class="frame-container-blur"><g class="frame-container-shadows"><g clip-path="url(#frame-clip-97a2594c-0bdc-80e2-8007-8174903ea760-render-1)" fill="none"><g class="fills" id="fills-97a2594c-0bdc-80e2-8007-8174903ea760"><rect rx="0" ry="0" x="0" y="0" width="24" height="24" transform="matrix(1.000000, 0.000000, 0.000000, 1.000000, 0.000000, 0.000000)" class="frame-background"/></g><g class="frame-children"><g id="shape-97a2594c-0bdc-80e2-8007-8174903ea761"><g class="frame-container-wrapper"><g class="frame-container-blur"><g class="frame-container-shadows"><g fill="none"><g class="fills" id="fills-97a2594c-0bdc-80e2-8007-8174903ea761"><rect rx="0" ry="0" x="2" y="2" width="20" height="20" transform="matrix(1.000000, 0.000000, 0.000000, 1.000000, 0.000000, 0.000000)" class="frame-background"/></g><g class="frame-children"><g id="shape-97a2594c-0bdc-80e2-8007-8174903ea762"><g class="fills" id="fills-97a2594c-0bdc-80e2-8007-8174903ea762"><path d="M2,5L4,2L4,20L22,20L19,22L2,22L2,5M22,20M22,2" style="fill: rgb(142, 81, 255); fill-opacity: 1;"/></g></g><g id="shape-97a2594c-0bdc-80e2-8007-8174903ea763"><g class="fills" id="fills-97a2594c-0bdc-80e2-8007-8174903ea763"><path d="M19,2L17,2L14,16L15,16L19,2" style="fill: rgb(142, 81, 255); fill-opacity: 1;"/></g></g><g id="shape-97a2594c-0bdc-80e2-8007-8174903ea764"><g class="fills" id="fills-97a2594c-0bdc-80e2-8007-8174903ea764"><path d="M4,2L7,2L11,16L15,16L19,2L22,2L22,20L4,20L4,2"/></g><g id="strokes-d51e242a-3a15-8028-8007-8174b65fb371-97a2594c-0bdc-80e2-8007-8174903ea764" class="strokes"><g class="inner-stroke-shape"><defs><clipPath id="inner-stroke-render-5-97a2594c-0bdc-80e2-8007-8174903ea764-0"><use href="#stroke-shape-render-5-97a2594c-0bdc-80e2-8007-8174903ea764-0"/></clipPath><path d="M4,2L7,2L11,16L15,16L19,2L22,2L22,20L4,20L4,2" id="stroke-shape-render-5-97a2594c-0bdc-80e2-8007-8174903ea764-0" style="fill: none; stroke-width: 0.5; stroke: rgb(112, 8, 231); stroke-opacity: 1;"/></defs><use href="#stroke-shape-render-5-97a2594c-0bdc-80e2-8007-8174903ea764-0" clip-path="url('#inner-stroke-render-5-97a2594c-0bdc-80e2-8007-8174903ea764-0')"/></g></g></g></g></g></g></g></g></g></g></g></g></g></g></g></svg>